<svg width="24" height="24" viewBox="0 0 24 24" fill="none" xmlns="http://www.w3.org/2000/svg">
<path d="M6.5298 3C7.03934 3 7.43811 2.99908 7.80457 3.11169C8.26057 3.25108 8.66857 3.516 8.9815 3.876C9.23257 4.16585 9.39411 4.53047 9.60088 4.9957C9.61288 5.02339 9.62488 5.05016 9.63781 5.07878L10.0089 5.91509C10.0227 5.94463 10.0357 5.97509 10.0495 6.0037C10.2738 6.50863 10.4501 6.90371 10.4889 7.32001C10.5267 7.71509 10.4713 8.11386 10.3273 8.48402C10.176 8.87356 9.89812 9.20587 9.54458 9.62956C9.52427 9.65448 9.50304 9.67941 9.48181 9.70433C9.03873 10.236 8.9298 10.3809 8.87073 10.5453C8.81165 10.7049 8.78765 10.944 8.81257 11.112C8.83842 11.2883 8.89934 11.4203 9.17627 11.9382C9.92396 13.3366 10.6624 14.076 12.0618 14.8237C12.5797 15.1007 12.7117 15.1616 12.888 15.1874C13.056 15.2123 13.2951 15.1883 13.4547 15.1293C13.6191 15.0693 13.764 14.9613 14.2957 14.5182C14.3206 14.497 14.3455 14.4757 14.3704 14.4554C14.7941 14.1019 15.1264 13.824 15.516 13.6727C15.8861 13.5287 16.2849 13.4733 16.68 13.5111C17.0963 13.5499 17.4914 13.7262 17.9963 13.9505C18.0249 13.9643 18.0554 13.9773 18.0849 13.9902L18.9212 14.3622C18.9489 14.3751 18.9766 14.3871 19.0043 14.3991C19.4695 14.6059 19.8342 14.7674 20.124 15.0185C20.484 15.3314 20.7489 15.7394 20.8883 16.1954C21.0009 16.5619 21 16.9607 21 17.4702V17.5865C21 18.0019 21 18.3536 20.9769 18.6462C20.952 18.9554 20.8994 19.2444 20.7692 19.5296C20.4914 20.1342 19.9163 20.6567 19.2877 20.8745C18.7597 21.0573 18.2225 21.0047 17.5477 20.9391C17.5108 20.9354 17.4729 20.9318 17.4351 20.9281C13.1464 20.5145 9.74488 19.1225 7.31165 16.6884C4.87748 14.2551 3.48548 10.8536 3.07194 6.56493C3.06825 6.52709 3.06456 6.48924 3.06086 6.45232C2.99532 5.77755 2.94271 5.24032 3.12548 4.71231C3.34333 4.0837 3.86579 3.50862 4.47041 3.23077C4.75564 3.10062 5.04456 3.048 5.35379 3.02308C5.64641 3 5.9981 3 6.41349 3H6.43934C6.4698 3 6.50026 3 6.5298 3ZM7.39934 4.43539C7.25718 4.392 7.08272 4.38462 6.43934 4.38462C5.99072 4.38462 5.69441 4.38554 5.46364 4.404C5.24302 4.42062 5.13041 4.45201 5.04733 4.48985C4.7861 4.60985 4.52764 4.89416 4.43348 5.16555C4.36241 5.37324 4.36887 5.59016 4.4501 6.43201C4.84241 10.4973 6.14395 13.5628 8.29011 15.7099C10.4372 17.856 13.5027 19.1576 17.568 19.5499C18.4098 19.6311 18.6268 19.6376 18.8345 19.5665C19.1058 19.4724 19.3901 19.2139 19.5101 18.9527C19.548 18.8696 19.5794 18.757 19.596 18.5364C19.6145 18.3056 19.6154 18.0093 19.6154 17.5607C19.6154 16.9173 19.608 16.7428 19.5646 16.6007C19.5009 16.392 19.38 16.2065 19.2157 16.0644C19.1031 15.9665 18.9471 15.889 18.3591 15.6277L17.5228 15.2557C16.8858 14.9733 16.7114 14.904 16.5489 14.8893C16.3689 14.8717 16.1871 14.8976 16.0181 14.9631C15.8668 15.0222 15.7172 15.1357 15.1818 15.5816C15.1578 15.6019 15.1338 15.6222 15.1098 15.6416C14.6852 15.996 14.3483 16.2776 13.9301 16.4299C13.5535 16.5674 13.0818 16.6154 12.6858 16.5573C12.2455 16.4927 11.9012 16.308 11.4729 16.0791C11.4517 16.0671 11.4304 16.056 11.4092 16.045C9.76888 15.168 8.83196 14.2311 7.95503 12.5908C7.94396 12.5696 7.93196 12.5483 7.92088 12.5271C7.69195 12.0988 7.50734 11.7545 7.44272 11.3142C7.38365 10.9173 7.43257 10.4465 7.57011 10.0699C7.72242 9.65172 8.00396 9.31479 8.35842 8.89017C8.3778 8.86617 8.39811 8.84217 8.41842 8.81817C8.86427 8.28279 8.97781 8.13325 9.03688 7.98186C9.10242 7.81294 9.12827 7.63109 9.11073 7.45109C9.09596 7.28955 9.02673 7.11417 8.74427 6.47724L8.37226 5.64093C8.11103 5.05293 8.03349 4.89693 7.93565 4.78431C7.79349 4.62001 7.60703 4.49908 7.39934 4.43539Z" fill="white"/>
</svg>
