<svg width="50" height="44" viewBox="0 0 50 44" fill="none" xmlns="http://www.w3.org/2000/svg">
<g clip-path="url(#clip0_2737_10311)">
<path d="M29.177 0.0204184C33.4812 -0.406089 35.6283 5.79567 35.4324 9.2498C35.299 11.613 34.0441 13.6454 33.7206 15.807C33.6872 16.0347 33.6263 16.3002 33.7554 16.5048C33.9585 16.792 34.8289 16.6586 35.1786 16.6774C38.6182 16.8631 45.2639 16.1523 47.9723 18.3182C51.4323 21.0861 49.7132 25.077 48.2813 28.4078C47.1918 30.9407 45.9152 33.7769 44.6067 36.1937C41.801 41.38 39.1419 42.6175 33.2897 42.8655C29.2785 43.0367 24.5101 43.1354 20.5235 42.7916C17.7541 42.5522 15.124 41.7819 13.4136 39.4564C11.5074 42.0531 7.94012 43.5909 4.76307 42.6653C2.19968 41.9182 0.300707 39.4651 0.104862 36.8059C-0.237505 32.1666 0.361636 27.1225 0.100509 22.4425C0.293453 19.7457 2.15326 17.2751 4.76307 16.5149C7.3961 15.7475 10.2264 16.6832 12.2531 18.4197C12.8827 16.808 13.8735 15.4878 14.976 14.1778C18.7754 9.66761 23.055 5.41704 26.9415 0.973531C27.5769 0.458531 28.3515 0.0987564 29.1755 0.0160663L29.177 0.0204184ZM6.54599 20.6915C5.3303 20.7307 4.52516 21.6664 4.3946 22.8211C4.58899 27.1878 4.103 31.8257 4.38154 36.1618C4.55708 38.8935 7.38305 39.0038 9.16597 37.6024C10.3106 36.7029 10.8285 35.4147 10.9155 33.9843C11.0722 31.4209 11.0577 27.8435 10.9155 25.2743C10.7835 22.8705 9.14565 20.6074 6.54454 20.6915H6.54599Z" fill="#013C70"/>
</g>
<defs>
<clipPath id="clip0_2737_10311">
<rect width="50" height="43.025" fill="white"/>
</clipPath>
</defs>
</svg>
