<svg width="72" height="40" viewBox="0 0 72 40" fill="none" xmlns="http://www.w3.org/2000/svg">
<path d="M11.2337 9.48828C11.3527 9.82038 11.3581 10.0217 11.303 10.3747C11.0009 12.3594 11.1849 14.4622 11.6167 16.4114C11.6384 16.5252 11.6601 16.6391 11.6825 16.7564C12.3159 19.4419 14.4503 21.7547 16.6816 23.2122C17.4338 23.6561 18.2214 24.0104 19.0209 24.3601C19.1636 24.424 19.3063 24.488 19.4533 24.5539C21.7675 25.5112 24.335 26.0547 26.8081 26.4114C26.9646 26.4345 27.1211 26.4576 27.2824 26.4815C30.1197 26.8572 32.9738 26.9484 35.8321 26.9482C36.007 26.9484 36.007 26.9484 36.1855 26.9486C37.4448 26.9484 38.7016 26.9268 39.9596 26.8666C40.1185 26.8592 40.1185 26.8592 40.2806 26.8516C40.7814 26.825 41.2534 26.7767 41.7443 26.6678C41.9277 26.6491 42.1114 26.6337 42.2953 26.6217C44.9577 26.4256 47.5964 25.9737 50.1698 25.2575C50.3555 25.2069 50.5412 25.1563 50.7269 25.1058C52.3123 24.6711 53.8909 24.2107 55.4597 23.719C64.3554 20.9592 64.3554 20.9592 67.5016 22.6238C68.3889 23.1829 69.0013 23.8493 69.3188 24.8729C69.5004 26.1215 69.1325 27.269 68.4421 28.3089C68.1929 28.6298 67.9332 28.9322 67.6592 29.2319C67.5912 29.3104 67.5233 29.3889 67.4533 29.4698C66.4301 30.584 65.0335 31.3731 63.7018 32.0524C63.6252 32.0926 63.5486 32.1328 63.4697 32.1743C62.8745 32.4822 62.2759 32.7308 61.6432 32.9498C61.5593 32.9799 61.4754 33.01 61.3889 33.041C59.9091 33.5606 58.4 33.9395 56.864 34.2479C56.7119 34.2801 56.5597 34.3123 56.403 34.3456C54.1548 34.8002 51.897 34.9185 49.608 34.9134C49.2294 34.913 48.8509 34.916 48.4724 34.9192C46.2314 34.9267 43.8368 34.8657 41.7443 33.9755C41.7443 33.9332 41.7443 33.8908 41.7443 33.8473C41.8711 33.839 41.9978 33.8307 42.1284 33.8221C44.518 33.6631 46.8961 33.4702 49.2682 33.1341C49.365 33.1206 49.4617 33.107 49.5614 33.093C50.5009 32.9602 51.4223 32.8094 52.3401 32.5652C52.6187 32.5237 52.898 32.4862 53.1778 32.453C54.0553 32.3314 54.8852 32.123 55.7365 31.8807C56.0954 31.7812 56.4556 31.6878 56.8161 31.5947C61.3583 30.5801 61.3583 30.5801 64.8776 27.8151C65.0241 27.4518 65.0266 27.1837 64.9784 26.796C64.611 26.258 64.0639 26.0369 63.4464 25.8985C61.1363 25.6277 58.7937 26.6101 56.6433 27.3226C55.5403 27.6876 54.4336 28.0123 53.3042 28.284C52.9292 28.3748 52.5645 28.4733 52.1994 28.5989C51.8197 28.7222 51.4669 28.7811 51.0714 28.8312C50.4375 28.9224 49.8368 29.0578 49.2204 29.2319C48.4628 29.4432 47.7209 29.585 46.941 29.6816C46.539 29.7352 46.1417 29.7992 45.7421 29.8679C44.9702 29.9986 44.1972 30.1011 43.4198 30.1934C43.2372 30.216 43.2372 30.216 43.0508 30.239C42.6156 30.2912 42.1801 30.3387 41.7443 30.3857C41.6024 30.402 41.6024 30.402 41.4577 30.4186C39.506 30.6399 37.5687 30.682 35.6057 30.6756C35.1067 30.6742 34.6077 30.6756 34.1087 30.6772C32.3222 30.6783 30.563 30.619 28.7873 30.421C28.4693 30.3859 28.1512 30.3538 27.8328 30.3228C27.3289 30.2736 26.8254 30.2218 26.3219 30.1684C26.1226 30.1474 25.9231 30.127 25.7237 30.1069C24.6328 29.9972 23.5865 29.8626 22.5257 29.5715C22.1416 29.4695 21.7615 29.4181 21.3666 29.3761C20.2538 29.2268 19.1982 28.9205 18.1273 28.5908C17.9746 28.5449 17.8219 28.499 17.6645 28.4516C15.9665 27.895 14.3045 27.0386 13.0264 25.7713C12.7677 25.5047 12.7677 25.5047 12.4524 25.277C12.065 24.9483 11.7843 24.5749 11.497 24.1598C11.4414 24.0797 11.3858 23.9997 11.3286 23.9172C9.47687 21.2147 9.02329 18.3419 9.60455 15.106C9.70798 14.5971 9.82841 14.0938 9.95708 13.5908C9.97888 13.5022 10.0007 13.4135 10.0231 13.3222C10.7418 10.4041 10.7418 10.4041 11.2337 9.48828Z" fill="#E48E2A"/>
<path d="M33.2726 8.0275C34.3698 8.67242 35.4173 9.39536 36.4661 10.1158C38.6565 11.6189 40.8403 13.0996 43.1792 14.3627C43.3733 14.4699 43.5634 14.5841 43.7526 14.6997C44.0312 14.8649 44.2992 14.9874 44.6008 15.1038C44.9842 15.2532 45.3664 15.4039 45.7468 15.5611C47.4376 16.2574 49.1627 16.8591 50.9359 17.3073C51.0872 17.3465 51.2384 17.3857 51.3942 17.426C52.3954 17.6833 53.4003 17.9186 54.4099 18.1404C54.9766 18.2651 55.5416 18.3954 56.1056 18.5318C57.5093 18.8706 58.9181 19.1472 60.3463 19.3591C60.4969 19.3816 60.6475 19.4041 60.8026 19.4272C61.1047 19.4719 61.407 19.5155 61.7094 19.558C61.9171 19.5884 61.9171 19.5884 62.1291 19.6195C62.2538 19.6372 62.3785 19.6549 62.507 19.6732C62.8083 19.7432 62.8083 19.7432 63.0636 19.9997C62.6684 20.1981 62.2503 20.1514 61.8164 20.1539C61.7163 20.1548 61.6162 20.1557 61.513 20.1566C61.1868 20.1588 60.8606 20.1596 60.5343 20.1599C60.4237 20.1601 60.3132 20.1603 60.1992 20.1606C58.6424 20.1607 57.1428 20.0894 55.6098 19.799C55.1798 19.7271 54.7477 19.6766 54.3149 19.6251C53.3294 19.5059 52.3543 19.3464 51.378 19.167C51.1108 19.1181 50.8434 19.0708 50.5759 19.0236C49.5688 18.8421 48.5972 18.6145 47.6175 18.3146C47.2635 18.2133 46.9189 18.1417 46.5556 18.0846C41.5444 17.2409 36.9146 14.4433 32.701 11.7485C32.2368 11.4519 31.7713 11.1586 31.3003 10.8731C31.1889 10.8051 31.0775 10.7372 30.9627 10.6672C30.1724 10.2905 29.253 10.2721 28.42 10.5045C27.3929 11.012 26.6371 11.9553 25.9146 12.8202C24.8697 14.0672 23.8582 15.0058 22.3402 15.6407C22.2233 15.6937 22.1065 15.7468 21.9861 15.8014C20.3683 16.4265 18.1542 16.4729 16.5237 15.8811C16.1497 15.7008 16.1497 15.7008 15.8295 15.5125C15.7371 15.4583 15.6446 15.4041 15.5493 15.3482C13.7609 14.1368 12.8358 12.3149 12.295 10.2781C12.2551 9.99966 12.2551 9.99966 12.3827 9.61504C12.463 9.73271 12.5433 9.85038 12.6261 9.97161C13.7547 11.6055 15.1282 13.28 17.1465 13.7927C18.6512 14.0259 19.8778 13.842 21.1194 12.9564C22.1628 12.0775 22.9473 11.0196 23.6991 9.88948C23.7517 9.81043 23.8044 9.73139 23.8587 9.64995C24.1258 9.24816 24.3901 8.84485 24.6507 8.43882C26.9767 4.86096 30.1596 6.26849 33.2726 8.0275Z" fill="#013C70"/>
<path d="M41.6041 35.7377C42.1031 35.7372 42.6022 35.7354 43.1012 35.7325C46.5334 35.713 49.9268 35.8353 53.3467 36.13C53.7662 36.1659 54.1858 36.1999 54.6055 36.2341C56.3771 36.3791 56.3771 36.3791 56.9279 36.4741C57.4945 36.5662 58.0637 36.5993 58.6358 36.6419C62.5367 36.9514 66.3822 37.5387 70.213 38.3326C70.213 38.3749 70.213 38.4172 70.213 38.4608C68.1414 38.4861 66.0753 38.453 64.005 38.3812C63.8289 38.3751 63.8289 38.3751 63.6491 38.3689C62.7918 38.339 61.9346 38.3078 61.0773 38.2765C53.9681 38.0179 46.8657 37.921 39.7522 37.9174C39.6353 37.9173 39.5184 37.9173 39.398 37.9172C39.281 37.9171 39.164 37.9171 39.0434 37.917C38.2174 37.9165 37.3914 37.9145 36.5653 37.9119C31.2938 37.8958 26.0486 37.9373 20.7856 38.2646C19.6857 38.3329 18.5859 38.3834 17.4846 38.4218C17.2713 38.4294 17.2713 38.4294 17.0536 38.4372C16.6617 38.4509 16.2698 38.464 15.8779 38.4769C15.4577 38.4909 15.0375 38.5052 14.6173 38.52C14.3657 38.5289 14.114 38.5373 13.8624 38.5453C13.2343 38.5672 12.616 38.6135 11.992 38.6886C11.7066 38.7217 11.423 38.739 11.136 38.7488C10.9799 38.7549 10.9799 38.7549 10.8207 38.7611C10.7123 38.7651 10.6039 38.7692 10.4922 38.7733C9.59414 38.811 8.70476 38.8746 7.81138 38.9736C6.7149 39.0946 5.6211 39.1507 4.51875 39.1862C3.8232 39.2095 3.13705 39.2562 2.44513 39.3311C1.96882 39.3782 1.49951 39.366 1.02148 39.3583C1.45444 39.1033 1.84242 39.0419 2.33797 38.9817C2.95426 38.9001 3.5575 38.8006 4.1651 38.6692C5.27135 38.4383 6.38808 38.293 7.507 38.1384C8.26852 38.0315 9.0177 37.9166 9.76617 37.7397C10.6939 37.521 11.6314 37.4459 12.5787 37.3621C12.8985 37.3334 13.2068 37.2971 13.5236 37.2429C14.1007 37.1484 14.6808 37.1115 15.2635 37.0666C16.2569 36.9874 17.2476 36.8959 18.2382 36.7865C21.5505 36.4219 24.8879 36.1733 28.2184 36.0622C28.7086 36.0456 29.192 36.0171 29.6797 35.9635C30.8373 35.8564 32.0002 35.8496 33.1618 35.8266C33.2897 35.824 33.4175 35.8213 33.5493 35.8186C36.2341 35.7633 38.9187 35.7403 41.6041 35.7377Z" fill="#013C70"/>
<path d="M8.80826 20.8984C8.89252 20.8984 8.97677 20.8984 9.06358 20.8984C9.42319 21.525 9.4039 22.1161 9.3189 22.8215C8.90726 24.3155 7.95783 25.39 6.86295 26.4383C6.32111 26.9909 6.17207 27.3781 6.12043 28.147C6.13474 28.7939 6.43122 29.1839 6.87741 29.6164C8.88068 31.2134 11.8917 31.7427 14.3514 32.1185C14.6192 32.1689 14.884 32.2349 15.1473 32.3053C15.7656 32.463 16.3863 32.5314 17.0199 32.5977C17.1452 32.6112 17.2706 32.6248 17.3998 32.6388C17.6649 32.6672 17.93 32.6953 18.1951 32.7231C18.5913 32.7647 18.9873 32.8079 19.3833 32.8513C19.6434 32.879 19.9034 32.9067 20.1635 32.9342C20.2777 32.9468 20.3919 32.9593 20.5095 32.9722C22.727 33.2003 24.9587 33.2269 27.1858 33.2467C27.4424 33.2493 27.699 33.252 27.9556 33.2548C28.6211 33.2617 29.2866 33.2681 29.952 33.2744C30.6351 33.2809 31.3181 33.288 32.0012 33.295C33.334 33.3087 34.6669 33.3217 35.9997 33.3343C35.6494 33.6862 35.2426 33.7659 34.779 33.9032C34.6033 33.9564 34.4276 34.0096 34.2519 34.063C34.1614 34.0901 34.071 34.1172 33.9777 34.1451C33.7956 34.2023 33.6147 34.2635 33.4352 34.3287C32.6153 34.6262 31.7952 34.7616 30.9333 34.8808C30.7772 34.9025 30.6211 34.9242 30.4603 34.9465C26.1698 35.5161 21.8859 35.4873 17.5769 35.2173C17.4516 35.2098 17.3264 35.2023 17.1973 35.1945C15.9071 35.1151 14.6579 35.0157 13.3996 34.7054C12.9853 34.608 12.5728 34.5457 12.1513 34.4882C11.5723 34.4032 11.0521 34.2761 10.5037 34.0745C10.1734 33.962 9.84241 33.8851 9.50241 33.8071C6.82638 33.148 4.20434 31.9639 2.5689 29.6645C2.31443 28.8978 2.22424 28.0148 2.56142 27.2606C2.75305 26.9921 2.95445 26.7686 3.19124 26.5395C3.26677 26.4651 3.34231 26.3907 3.42013 26.3141C3.87774 25.8915 4.3671 25.5287 4.87475 25.1693C6.41124 24.0646 8.00527 22.6457 8.80826 20.8984Z" fill="#013C70"/>
<path d="M31.787 13.207C31.8291 13.207 31.8713 13.207 31.9147 13.207C32.0854 15.2311 31.3067 16.9114 30.0776 18.4644C28.6204 20.1534 26.6973 21.1114 24.6301 21.8529C24.542 21.8845 24.454 21.9162 24.3633 21.9488C23.3507 22.2959 22.3646 22.3329 21.303 22.3336C21.1784 22.3352 21.0538 22.3368 20.9255 22.3384C20.8048 22.3386 20.6842 22.3389 20.5599 22.3391C20.4513 22.3397 20.3427 22.3402 20.2308 22.3407C19.8752 22.3057 19.6007 22.2002 19.2764 22.0532C19.404 21.7968 19.404 21.7968 19.795 21.6495C19.9623 21.5964 20.1299 21.544 20.2976 21.4923C21.0458 21.2508 21.7609 20.9901 22.4679 20.6429C22.5397 20.6081 22.6115 20.5732 22.6855 20.5373C25.2407 19.2944 27.5546 17.8808 29.6168 15.8993C29.7068 15.8156 29.7968 15.7318 29.8896 15.6454C30.5377 15.0243 31.0405 14.3422 31.5317 13.5916C31.6159 13.4647 31.7002 13.3378 31.787 13.207Z" fill="#013C70"/>
<path d="M36.1276 16.1523C36.254 16.2158 36.254 16.2158 36.3829 16.2805C36.5391 18.0934 35.9994 19.7617 34.851 21.1523C33.3389 22.8568 31.4037 24.1812 29.1063 24.4857C28.7698 24.4942 28.4372 24.4979 28.101 24.4937C28.0131 24.4931 27.9252 24.4925 27.8347 24.4919C27.6203 24.4904 27.4058 24.4881 27.1914 24.4857C27.5342 24.0764 27.9771 23.8787 28.4441 23.6443C29.4599 23.1171 30.3664 22.4851 31.2765 21.7934C31.3848 21.7135 31.4931 21.6337 31.6046 21.5515C33.5121 20.0942 35.0859 18.3274 36.1276 16.1523Z" fill="#013C70"/>
<path d="M40.596 18.0781C40.9596 18.4433 40.894 18.6975 40.8992 19.2079C40.8861 21.1701 40.0946 22.5305 38.7769 23.9355C37.5584 25.1067 36.1045 26.0491 34.3726 26.0589C34.1916 26.0509 34.0107 26.0413 33.8301 26.0268C34.1865 25.6498 34.5532 25.3519 34.979 25.0573C35.8085 24.4603 36.5395 23.7835 37.2769 23.0781C37.361 23.0005 37.4451 22.9228 37.5317 22.8427C38.9087 21.5333 39.9538 19.8614 40.596 18.0781Z" fill="#013C70"/>
<path d="M44.6809 19.3594C45.2129 19.8518 45.4062 20.4209 45.4887 21.1292C45.5378 22.4863 45.1546 23.5674 44.2884 24.6068C43.6883 25.2546 43.0823 25.8181 42.2553 26.1542C42.1711 26.1542 42.0868 26.1542 42 26.1542C42.1828 25.7546 42.4115 25.3956 42.6539 25.0299C43.7941 23.3049 44.5846 21.4566 44.6809 19.3594Z" fill="#013C70"/>
<path d="M4.17766 38.7773C4.56576 38.868 4.92966 38.8595 5.328 38.8577C5.57608 38.8571 5.57608 38.8571 5.82916 38.8565C6.0032 38.8554 6.17724 38.8543 6.35127 38.8532C6.5273 38.8526 6.70333 38.852 6.87936 38.8514C7.30972 38.8499 7.74007 38.8478 8.17042 38.8452C8.17042 38.8875 8.17042 38.9298 8.17042 38.9734C8.03402 38.9805 7.89762 38.9876 7.75709 38.9949C7.24554 39.0216 6.73401 39.0487 6.22249 39.0759C6.00212 39.0876 5.78175 39.0991 5.56138 39.1106C3.98357 39.1914 3.98357 39.1914 2.41034 39.3337C1.94643 39.3807 1.48709 39.3655 1.02148 39.358C1.47326 39.0876 1.89989 39.0314 2.41776 38.9654C3.04399 38.886 3.04399 38.886 3.66294 38.7656C3.95765 38.717 3.95765 38.717 4.17766 38.7773Z" fill="#013C70"/>
<path d="M62.2975 19.7422C62.5502 19.7845 62.803 19.8268 63.0634 19.8704C62.8081 20.1268 62.8081 20.1268 62.3338 20.1559C62.1299 20.1559 61.9259 20.1544 61.722 20.1518C61.561 20.1513 61.561 20.1513 61.3968 20.1507C61.0534 20.1493 60.71 20.1461 60.3666 20.1428C60.1341 20.1415 59.9015 20.1404 59.669 20.1393C59.0983 20.1365 58.5277 20.1321 57.957 20.1268C57.957 20.0845 57.957 20.0422 57.957 19.9986C59.3894 19.9563 60.8217 19.914 62.2975 19.8704C62.2975 19.8281 62.2975 19.7858 62.2975 19.7422Z" fill="#013C70"/>
<path d="M11.234 9.48828C11.4094 9.97771 11.3208 10.395 11.234 10.8985C11.1497 10.8985 11.0655 10.8985 10.9787 10.8985C10.7712 11.0855 10.7712 11.0855 10.5957 11.2832C10.6536 11.08 10.7123 10.877 10.7712 10.6742C10.8038 10.5611 10.8364 10.4481 10.87 10.3316C10.9686 10.0318 11.0854 9.76592 11.234 9.48828Z" fill="#E48E2A"/>
<path d="M38.4255 21.793C38.5097 21.8776 38.594 21.9622 38.6808 22.0494C38.1753 22.5571 37.6697 23.0648 37.1489 23.5878C37.0646 23.5455 36.9804 23.5032 36.8936 23.4596C36.9827 23.3715 37.0719 23.2835 37.1638 23.1927C37.28 23.0772 37.3962 22.9617 37.5159 22.8426C37.6314 22.7281 37.7469 22.6136 37.866 22.4956C38.1827 22.1832 38.1827 22.1832 38.4255 21.793Z" fill="#013C70"/>
<path d="M34.7237 25.2578C34.808 25.3001 34.8922 25.3424 34.979 25.386C34.7894 25.5764 34.7894 25.5764 34.596 25.7706C34.7645 25.8552 34.9331 25.9399 35.1067 26.027C34.6854 26.027 34.2641 26.027 33.8301 26.027C34.1183 25.7277 34.3765 25.4902 34.7237 25.2578Z" fill="#013C70"/>
<path d="M31.787 13.207C31.8291 13.207 31.8713 13.207 31.9147 13.207C31.9147 13.6301 31.9147 14.0532 31.9147 14.4891C31.8304 14.3199 31.7462 14.1506 31.6593 13.9763C31.533 13.9763 31.4066 13.9763 31.2764 13.9763C31.4428 13.7174 31.6132 13.461 31.787 13.207Z" fill="#013C70"/>
</svg>
