<svg width="32" height="32" viewBox="0 0 32 32" fill="none" xmlns="http://www.w3.org/2000/svg">
<path d="M13.3327 10.6667C13.3327 13.1809 13.3327 14.4379 12.5516 15.219C11.7706 16 10.5135 16 7.99935 16C5.48519 16 4.22811 16 3.44707 15.219C2.66602 14.4379 2.66602 13.1809 2.66602 10.6667C2.66602 8.15255 2.66602 6.89547 3.44707 6.11443C4.22811 5.33337 5.48519 5.33337 7.99935 5.33337C10.5135 5.33337 11.7706 5.33337 12.5516 6.11443C13.3327 6.89547 13.3327 8.15255 13.3327 10.6667Z" stroke="white" stroke-width="1.5"/>
<path d="M13.334 9.33337V15.3095C13.334 20.6063 9.9797 25.0983 5.33398 26.6667" stroke="white" stroke-width="1.5" stroke-linecap="round"/>
<path d="M29.3327 10.6667C29.3327 13.1809 29.3327 14.4379 28.5516 15.219C27.7705 16 26.5135 16 23.9993 16C21.4852 16 20.2281 16 19.4471 15.219C18.666 14.4379 18.666 13.1809 18.666 10.6667C18.666 8.15255 18.666 6.89547 19.4471 6.11443C20.2281 5.33337 21.4852 5.33337 23.9993 5.33337C26.5135 5.33337 27.7705 5.33337 28.5516 6.11443C29.3327 6.89547 29.3327 8.15255 29.3327 10.6667Z" stroke="white" stroke-width="1.5"/>
<path d="M29.334 9.33337V15.3095C29.334 20.6063 25.9797 25.0983 21.334 26.6667" stroke="white" stroke-width="1.5" stroke-linecap="round"/>
</svg>
