<svg width="50" height="50" viewBox="0 0 50 50" fill="none" xmlns="http://www.w3.org/2000/svg">
<g clip-path="url(#clip0_2737_20779)">
<path d="M38.2876 0.0226661C46.8781 -0.497531 52.7631 8.65679 48.6567 16.2767C47.1804 19.0171 44.7828 21.0093 42.6599 23.2121C41.371 24.549 40.7593 25.9425 38.5579 25.7201C37.0234 25.5647 36.5047 24.4443 35.5791 23.4679C32.7151 20.4455 29.1594 17.8053 28.1801 13.5028C26.6776 6.88695 31.541 0.430978 38.2876 0.0226661ZM38.6509 6.99738C33.4082 7.36501 33.8049 15.3598 39.2103 15.1113C44.4907 14.8701 44.1841 6.60941 38.6509 6.99738Z" fill="#013C70"/>
<path d="M18.3796 11.0659C19.3764 10.9976 22.6588 10.8988 23.4595 11.1749C25.8004 11.9828 25.3848 15.4934 22.7925 15.6968C20.2003 15.9002 17.9131 15.1708 15.5388 16.7256C11.0968 19.6346 14.0785 24.7 18.7181 24.9979C23.6121 25.3103 28.365 23.972 32.6865 27.0133C38.4886 31.0949 37.7184 39.0737 31.5196 42.2981C28.9288 43.6451 25.4516 43.8238 22.5688 43.5957C19.6394 43.3646 19.6394 39.1711 22.5688 38.9401C25.1654 38.7352 27.4482 39.4661 29.8225 37.9113C34.2645 35.0022 31.2828 29.9369 26.6432 29.639C21.399 29.3033 16.2348 30.8116 11.8538 26.9915C5.03606 21.0455 10.0448 11.6355 18.3781 11.0644L18.3796 11.0659Z" fill="#013C70"/>
<path d="M8.06306 32.5711C15.0988 32.0437 19.8925 39.7333 16.2017 45.7955C13.0166 51.0251 5.60738 51.4174 1.83232 46.6063C-2.44696 41.1529 1.20314 33.0855 8.06306 32.5711Z" fill="#013C70"/>
</g>
<defs>
<clipPath id="clip0_2737_20779">
<rect width="50" height="49.9782" fill="white"/>
</clipPath>
</defs>
</svg>
