<svg width="1942" height="775" viewBox="0 0 1942 775" fill="none" xmlns="http://www.w3.org/2000/svg">
<path d="M1940 761.223C1901.55 789.568 1817.69 763.983 1713.5 665.207C1583.26 541.737 1232 420.207 1186.91 537.344C1128.92 688.021 1400.3 703.091 1319.08 462.397C1237.86 221.703 745.193 406.394 355.011 313.465C58.4869 242.842 -8.31519 31.2942 3.21899 0.707031" stroke="#013C70" stroke-opacity="0.07" stroke-width="4"/>
<path d="M147.82 171.355C148.047 171.088 148.449 171.055 148.717 171.282L183.53 200.831L183.533 200.833C187.22 203.938 191.913 205.649 196.732 205.648H218.21C218.561 205.649 218.846 205.933 218.846 206.284C218.846 206.635 218.561 206.921 218.21 206.921H196.732C191.614 206.92 186.642 205.108 182.725 201.815L182.72 201.811L182.712 201.805L147.894 172.251C147.626 172.024 147.593 171.623 147.82 171.355Z" stroke="#013C70" stroke-opacity="0.85" stroke-width="2"/>
<path d="M176.392 186.707C178.235 188.758 179.703 190.383 180.482 191.274L180.483 191.275C180.579 191.384 180.669 191.494 180.757 191.604L176.392 187.931C176.387 187.524 176.387 187.116 176.392 186.707Z" stroke="#013C70" stroke-opacity="0.85" stroke-width="2"/>
<mask id="path-4-inside-1_837_25360" fill="white">
<path d="M166.393 169.541C164.989 168.289 163.74 167.13 162.708 166.098C163.709 167.645 164.635 169.05 166.015 170.794C166.136 170.381 166.263 169.964 166.393 169.541Z"/>
</mask>
<path d="M166.393 169.541L168.305 170.129L168.682 168.902L167.724 168.048L166.393 169.541ZM162.708 166.098L164.122 164.683L161.029 167.184L162.708 166.098ZM166.015 170.794L164.447 172.035L166.845 175.066L167.934 171.358L166.015 170.794ZM166.393 169.541L167.724 168.048C166.335 166.809 165.117 165.678 164.122 164.683L162.708 166.098L161.294 167.512C162.363 168.581 163.643 169.768 165.062 171.034L166.393 169.541ZM162.708 166.098L161.029 167.184C162.038 168.745 163.006 170.214 164.447 172.035L166.015 170.794L167.584 169.553C166.264 167.885 165.379 166.545 164.387 165.011L162.708 166.098ZM166.015 170.794L167.934 171.358C168.052 170.956 168.176 170.547 168.305 170.129L166.393 169.541L164.481 168.953C164.35 169.381 164.221 169.807 164.096 170.231L166.015 170.794Z" fill="#013C70" fill-opacity="0.85" mask="url(#path-4-inside-1_837_25360)"/>
<path d="M170.371 174.306C171.247 175.047 172.151 175.804 173.073 176.572C173.041 176.731 173.01 176.889 172.979 177.046C171.999 176.039 171.136 175.133 170.371 174.306Z" stroke="#013C70" stroke-opacity="0.85" stroke-width="2"/>
<path d="M176.814 179.668C180.661 182.839 184.632 186.088 188.216 189.114C190.144 190.742 191.278 193.063 191.935 195.365C192.402 197.006 192.613 198.593 192.705 199.828C191.138 199.399 189.644 198.721 188.284 197.813C187.542 191.389 182.798 186.759 177.226 181.297H177.225C177.048 181.124 176.877 180.954 176.707 180.787C176.741 180.41 176.777 180.036 176.814 179.668Z" stroke="#013C70" stroke-opacity="0.85" stroke-width="2"/>
<path d="M168.128 177.338C169.468 178.901 170.832 180.462 172.148 181.953C172.04 182.708 171.944 183.431 171.859 184.117L167.737 180.649C167.837 179.546 167.97 178.436 168.128 177.338Z" stroke="#013C70" stroke-opacity="0.85" stroke-width="2"/>
<path d="M190.829 162.115C191.093 162.159 191.403 162.348 191.753 162.785C192.3 163.469 192.695 164.43 193.013 165.268L193.307 166.049C193.435 166.383 193.824 167.248 194.355 168.414L189.999 169.732C188.819 170.089 188.122 171.28 188.352 172.462L188.41 172.698C188.79 173.956 190.119 174.668 191.377 174.287L191.378 174.288L196.366 172.778C196.68 173.454 197.004 174.151 197.332 174.855L192.577 176.294H192.576C191.32 176.675 190.608 178.002 190.988 179.261C191.345 180.441 192.536 181.138 193.719 180.908L193.955 180.85L199.367 179.213C199.705 179.936 200.032 180.633 200.339 181.287L195.155 182.855C193.975 183.212 193.277 184.403 193.508 185.587L193.566 185.823C193.947 187.08 195.275 187.792 196.532 187.413L196.533 187.412L202.383 185.643C202.391 185.66 202.4 185.677 202.407 185.693C202.453 185.79 202.489 185.865 202.513 185.916C202.525 185.941 202.534 185.961 202.54 185.974C202.543 185.98 202.545 185.985 202.547 185.988C202.548 185.99 202.548 185.991 202.549 185.992V185.993C203.463 187.961 205.141 189.468 207.192 190.169C207.194 190.17 207.196 190.17 207.197 190.171C207.207 190.175 207.221 190.18 207.238 190.188C207.274 190.202 207.327 190.224 207.395 190.251C207.53 190.306 207.727 190.385 207.975 190.481C208.469 190.675 209.165 190.942 209.975 191.235C211.586 191.819 213.679 192.518 215.531 192.945C217.733 193.453 219.039 195.392 218.999 197.109C218.98 197.94 218.649 198.719 217.938 199.307C217.214 199.904 216.006 200.375 214.121 200.375H199.269C198.277 191.014 192.02 184.881 183.419 179.182L182.649 178.664C180.978 177.521 179.209 176.199 177.43 174.8C177.655 173.285 177.876 172.003 178.048 171.072C178.144 170.55 178.224 170.138 178.28 169.857C178.308 169.718 178.331 169.611 178.346 169.539C178.353 169.503 178.359 169.476 178.362 169.458L178.367 169.434V169.433L178.566 168.502L177.646 168.258L176.295 167.898L175.366 167.652L175.083 168.57C174.718 169.752 174.388 170.933 174.09 172.099C172.63 170.887 171.209 169.673 169.879 168.513C170.261 166.961 170.619 165.648 170.893 164.694C171.046 164.158 171.172 163.736 171.26 163.448C171.303 163.305 171.337 163.195 171.36 163.122C171.372 163.085 171.38 163.057 171.386 163.039C171.389 163.03 171.391 163.023 171.393 163.019C171.393 163.017 171.393 163.016 171.394 163.015L171.395 163.014V163.013L171.564 162.479C173.351 164.158 176.031 165.146 178.774 165.438C182.422 165.825 186.522 165.033 189.48 162.665C190.164 162.118 190.591 162.076 190.829 162.115ZM167.915 146.714C168.247 146.677 168.627 146.791 169.013 147.088C169.4 147.386 169.735 147.83 169.937 148.316C170.114 148.746 170.163 149.145 170.112 149.46L170.084 149.59C169.287 152.511 168.041 156.734 170.169 160.686C170.389 161.094 170.652 161.475 170.952 161.831L170.795 161.772L169.422 161.255L168.525 160.916L168.149 161.798C167.601 163.083 167.101 164.371 166.643 165.644C165.324 164.455 164.196 163.417 163.348 162.627C162.808 162.125 162.381 161.723 162.09 161.447C161.944 161.31 161.832 161.203 161.757 161.132C161.719 161.096 161.691 161.069 161.672 161.051C161.662 161.042 161.655 161.035 161.65 161.03L161.645 161.024L161.644 161.023L160.858 160.271L160.174 161.117L159.209 162.312L159.048 162.512L158.416 163.269L158 163.768L158.286 164.351C159.267 166.348 161.626 169.489 164.396 172.884C164.006 174.352 163.676 175.737 163.398 176.997L150.921 166.497C151.324 166.02 151.897 165.341 152.588 164.521C153.986 162.861 155.869 160.623 157.806 158.313C161.664 153.712 165.779 148.775 166.668 147.59C167.157 146.938 167.6 146.749 167.915 146.714Z" stroke="#013C70" stroke-opacity="0.85" stroke-width="2"/>
</svg>
