<svg width="50" height="50" viewBox="0 0 50 50" fill="none" xmlns="http://www.w3.org/2000/svg">
<g clip-path="url(#clip0_2737_21656)">
<path d="M31.9074 0.0313011C35.8551 -0.0805753 43.9378 -0.0282694 46.9279 2.83983C50.2275 6.00579 50.0706 14.2396 49.937 18.4953C49.8483 21.3285 50.0793 24.8373 48.298 27.1722C45.937 30.267 42.5764 33.6857 39.8434 36.5161C36.2444 40.2443 32.0542 44.5784 28.0731 47.8475C24.5163 50.7694 20.1226 50.6314 16.4874 47.9521C11.6317 44.3736 5.22565 38.1027 1.78654 33.1583C-1.01327 29.1337 -0.38851 24.9608 2.6801 21.3663C7.36437 15.8771 13.1878 10.337 18.5535 5.4929C20.0529 4.13876 22.6914 1.49732 24.4626 0.795547C26.1959 0.108307 29.9431 0.0865127 31.9074 0.0313011ZM37.5012 8.74894C33.0988 9.08602 33.4083 15.8117 37.9182 15.7042C42.4282 15.5966 42.3076 8.37989 37.5012 8.74894ZM22.3892 15.7216C19.6475 16.0354 19.7391 20.1603 22.5156 20.3492C25.901 20.5788 25.8225 15.3293 22.3892 15.7216ZM13.0904 25.0204C10.3676 25.4999 10.4286 29.2296 13.1514 29.6408L32.1748 29.648C34.9833 29.2877 35.0443 25.4476 32.2402 25.0088L13.0904 25.0204ZM22.3892 34.3192C20.7256 34.5226 19.8466 36.3853 20.7198 37.8353C21.5305 39.1822 23.5051 39.3464 24.5091 38.1099C25.8792 36.4245 24.5003 34.0591 22.3878 34.3178L22.3892 34.3192Z" fill="#013C70"/>
</g>
<defs>
<clipPath id="clip0_2737_21656">
<rect width="49.9942" height="50" fill="white"/>
</clipPath>
</defs>
</svg>
